<?xml version="1.0" encoding="UTF-8" standalone="no"?>
<!DOCTYPE svg PUBLIC "-//W3C//DTD SVG 1.1//EN"
 "http://www.w3.org/Graphics/SVG/1.1/DTD/svg11.dtd">
<!-- Generated by graphviz version 2.38.0 (20140413.2041)
 -->
<!-- Title: %3 Pages: 1 -->
<svg width="207pt" height="424pt"
 viewBox="0.00 0.00 206.50 423.80" xmlns="http://www.w3.org/2000/svg" xmlns:xlink="http://www.w3.org/1999/xlink">
<g id="graph0" class="graph" transform="scale(1 1) rotate(0) translate(4 419.8)">
<title>%3</title>
<polygon fill="white" stroke="none" points="-4,4 -4,-419.8 202.5,-419.8 202.5,4 -4,4"/>
<!-- PC -->
<g id="node1" class="node"><title>PC</title>
<path fill="none" stroke="black" d="M42,-415.8C42,-415.8 12,-415.8 12,-415.8 6,-415.8 0,-409.8 0,-403.8 0,-403.8 0,-391.8 0,-391.8 0,-385.8 6,-379.8 12,-379.8 12,-379.8 42,-379.8 42,-379.8 48,-379.8 54,-385.8 54,-391.8 54,-391.8 54,-403.8 54,-403.8 54,-409.8 48,-415.8 42,-415.8"/>
<text text-anchor="middle" x="27" y="-394.7" font-family="Times New Roman,serif" font-size="12.00">PC</text>
</g>
<!-- Trigger1 -->
<g id="node3" class="node"><title>Trigger1</title>
<path fill="none" stroke="black" d="M78.5,-332.8C78.5,-332.8 25.5,-332.8 25.5,-332.8 19.5,-332.8 13.5,-326.8 13.5,-320.8 13.5,-320.8 13.5,-308.8 13.5,-308.8 13.5,-302.8 19.5,-296.8 25.5,-296.8 25.5,-296.8 78.5,-296.8 78.5,-296.8 84.5,-296.8 90.5,-302.8 90.5,-308.8 90.5,-308.8 90.5,-320.8 90.5,-320.8 90.5,-326.8 84.5,-332.8 78.5,-332.8"/>
<text text-anchor="middle" x="52" y="-311.7" font-family="Times New Roman,serif" font-size="12.00">Trig_A_Scan</text>
</g>
<!-- PC&#45;&gt;Trigger1 -->
<g id="edge6" class="edge"><title>PC&#45;&gt;Trigger1</title>
<path fill="none" stroke="black" d="M29.3913,-379.518C30.8475,-370.785 33.0118,-360.097 36,-350.8 36.9009,-347.997 37.9656,-345.123 39.1111,-342.284"/>
<polygon fill="black" stroke="black" points="42.403,-343.491 43.1963,-332.926 35.9877,-340.69 42.403,-343.491"/>
<text text-anchor="middle" x="45.5" y="-353.8" font-family="Times New Roman,serif" font-size="10.00">USB</text>
</g>
<!-- Grab -->
<g id="node2" class="node"><title>Grab</title>
<path fill="none" stroke="black" d="M128,-36C128,-36 58,-36 58,-36 52,-36 46,-30 46,-24 46,-24 46,-12 46,-12 46,-6 52,-0 58,-0 58,-0 128,-0 128,-0 134,-0 140,-6 140,-12 140,-12 140,-24 140,-24 140,-30 134,-36 128,-36"/>
<text text-anchor="middle" x="93" y="-14.9" font-family="Times New Roman,serif" font-size="12.00">Grabber/Camera</text>
</g>
<!-- Trigger2 -->
<g id="node4" class="node"><title>Trigger2</title>
<path fill="none" stroke="black" d="M142.5,-249.8C142.5,-249.8 89.5,-249.8 89.5,-249.8 83.5,-249.8 77.5,-243.8 77.5,-237.8 77.5,-237.8 77.5,-225.8 77.5,-225.8 77.5,-219.8 83.5,-213.8 89.5,-213.8 89.5,-213.8 142.5,-213.8 142.5,-213.8 148.5,-213.8 154.5,-219.8 154.5,-225.8 154.5,-225.8 154.5,-237.8 154.5,-237.8 154.5,-243.8 148.5,-249.8 142.5,-249.8"/>
<text text-anchor="middle" x="116" y="-228.7" font-family="Times New Roman,serif" font-size="12.00">Trig_B_Scan</text>
</g>
<!-- Trigger1&#45;&gt;Trigger2 -->
<g id="edge1" class="edge"><title>Trigger1&#45;&gt;Trigger2</title>
<path fill="none" stroke="black" d="M71.7938,-288.748C79.5658,-278.912 88.4679,-267.645 96.2369,-257.813"/>
<polygon fill="black" stroke="black" points="69.0261,-286.606 65.5728,-296.622 74.5186,-290.945 69.0261,-286.606"/>
<polygon fill="black" stroke="black" points="98.9934,-259.969 102.447,-249.953 93.501,-255.63 98.9934,-259.969"/>
</g>
<!-- TrigOut1 -->
<g id="node9" class="node"><title>TrigOut1</title>
<ellipse fill="black" stroke="black" cx="51" cy="-190.3" rx="5.4" ry="5.4"/>
</g>
<!-- Trigger1&#45;&gt;TrigOut1 -->
<g id="edge10" class="edge"><title>Trigger1&#45;&gt;TrigOut1</title>
<path fill="none" stroke="black" d="M51.861,-296.767C51.6644,-272.693 51.3086,-229.106 51.1219,-206.232"/>
<polygon fill="black" stroke="black" points="54.6211,-206.111 51.0395,-196.14 47.6214,-206.168 54.6211,-206.111"/>
<text text-anchor="middle" x="62" y="-270.8" font-family="Times New Roman,serif" font-size="10.00">Out1</text>
</g>
<!-- Trigger3 -->
<g id="node5" class="node"><title>Trigger3</title>
<path fill="none" stroke="black" d="M186.5,-166.8C186.5,-166.8 133.5,-166.8 133.5,-166.8 127.5,-166.8 121.5,-160.8 121.5,-154.8 121.5,-154.8 121.5,-142.8 121.5,-142.8 121.5,-136.8 127.5,-130.8 133.5,-130.8 133.5,-130.8 186.5,-130.8 186.5,-130.8 192.5,-130.8 198.5,-136.8 198.5,-142.8 198.5,-142.8 198.5,-154.8 198.5,-154.8 198.5,-160.8 192.5,-166.8 186.5,-166.8"/>
<text text-anchor="middle" x="160" y="-145.7" font-family="Times New Roman,serif" font-size="12.00">Trig_C_Scan</text>
</g>
<!-- Trigger2&#45;&gt;Trigger3 -->
<g id="edge2" class="edge"><title>Trigger2&#45;&gt;Trigger3</title>
<path fill="none" stroke="black" d="M125.331,-213.622C131.281,-202.668 139.107,-188.262 145.818,-175.908"/>
<polygon fill="black" stroke="black" points="148.984,-177.411 150.682,-166.953 142.833,-174.07 148.984,-177.411"/>
</g>
<!-- TrigOut2 -->
<g id="node10" class="node"><title>TrigOut2</title>
<ellipse fill="black" stroke="black" cx="93" cy="-107.3" rx="5.4" ry="5.4"/>
</g>
<!-- Trigger2&#45;&gt;TrigOut2 -->
<g id="edge11" class="edge"><title>Trigger2&#45;&gt;TrigOut2</title>
<path fill="none" stroke="black" d="M112.802,-213.767C108.24,-189.47 99.9464,-145.297 95.6853,-122.602"/>
<polygon fill="black" stroke="black" points="99.1089,-121.869 93.8237,-112.687 92.2292,-123.161 99.1089,-121.869"/>
<text text-anchor="middle" x="120" y="-187.8" font-family="Times New Roman,serif" font-size="10.00">Out2</text>
</g>
<!-- TrigOut3 -->
<g id="node11" class="node"><title>TrigOut3</title>
<ellipse fill="black" stroke="black" cx="134" cy="-78.4" rx="5.4" ry="5.4"/>
</g>
<!-- Trigger3&#45;&gt;TrigOut3 -->
<g id="edge12" class="edge"><title>Trigger3&#45;&gt;TrigOut3</title>
<path fill="none" stroke="black" d="M153.439,-130.54C149.064,-119.031 143.388,-104.097 139.3,-93.3424"/>
<polygon fill="black" stroke="black" points="142.449,-91.7761 135.624,-83.6723 135.906,-94.2634 142.449,-91.7761"/>
<text text-anchor="middle" x="156" y="-104.8" font-family="Times New Roman,serif" font-size="10.00">Out3</text>
</g>
<!-- TrigIn1 -->
<g id="node6" class="node"><title>TrigIn1</title>
<ellipse fill="black" stroke="black" cx="77" cy="-397.8" rx="5.4" ry="5.4"/>
</g>
<!-- TrigIn1&#45;&gt;Trigger1 -->
<g id="edge7" class="edge"><title>TrigIn1&#45;&gt;Trigger1</title>
<path fill="none" stroke="black" stroke-dasharray="5,2" d="M75.6559,-392.445C72.7806,-383.129 65.8367,-360.631 60.2114,-342.405"/>
<polygon fill="black" stroke="black" points="63.5496,-341.353 57.2561,-332.83 56.8609,-343.417 63.5496,-341.353"/>
<text text-anchor="middle" x="72.5" y="-353.8" font-family="Times New Roman,serif" font-size="10.00">In1</text>
</g>
<!-- TrigIn2 -->
<g id="node7" class="node"><title>TrigIn2</title>
<ellipse fill="black" stroke="black" cx="117" cy="-314.8" rx="5.4" ry="5.4"/>
</g>
<!-- TrigIn2&#45;&gt;Trigger2 -->
<g id="edge8" class="edge"><title>TrigIn2&#45;&gt;Trigger2</title>
<path fill="none" stroke="black" stroke-dasharray="5,2" d="M116.94,-308.976C116.824,-299.511 116.557,-277.879 116.337,-260.077"/>
<polygon fill="black" stroke="black" points="119.834,-259.85 116.211,-249.894 112.835,-259.937 119.834,-259.85"/>
<text text-anchor="middle" x="123.5" y="-270.8" font-family="Times New Roman,serif" font-size="10.00">In2</text>
</g>
<!-- TrigIn3 -->
<g id="node8" class="node"><title>TrigIn3</title>
<ellipse fill="black" stroke="black" cx="178" cy="-231.8" rx="5.4" ry="5.4"/>
</g>
<!-- TrigIn3&#45;&gt;Trigger3 -->
<g id="edge9" class="edge"><title>TrigIn3&#45;&gt;Trigger3</title>
<path fill="none" stroke="black" stroke-dasharray="5,2" d="M177.032,-226.445C174.972,-217.172 170.009,-194.839 165.968,-176.658"/>
<polygon fill="black" stroke="black" points="169.37,-175.832 163.784,-166.83 162.537,-177.351 169.37,-175.832"/>
<text text-anchor="middle" x="176.5" y="-187.8" font-family="Times New Roman,serif" font-size="10.00">In3</text>
</g>
<!-- TrigOut1&#45;&gt;Grab -->
<g id="edge3" class="edge"><title>TrigOut1&#45;&gt;Grab</title>
<path fill="none" stroke="black" stroke-dasharray="5,2" d="M52.1234,-184.745C56.9459,-165.191 76.1138,-87.4696 86.3979,-45.77"/>
<polygon fill="black" stroke="black" points="89.8105,-46.5491 88.8069,-36.0019 83.0142,-44.8729 89.8105,-46.5491"/>
</g>
<!-- TrigOut2&#45;&gt;Grab -->
<g id="edge4" class="edge"><title>TrigOut2&#45;&gt;Grab</title>
<path fill="none" stroke="black" d="M93,-101.606C93,-91.3393 93,-66.2159 93,-46.3513"/>
<polygon fill="black" stroke="black" points="96.5001,-46.2672 93,-36.2672 89.5001,-46.2673 96.5001,-46.2672"/>
</g>
<!-- TrigOut3&#45;&gt;Grab -->
<g id="edge5" class="edge"><title>TrigOut3&#45;&gt;Grab</title>
<path fill="none" stroke="black" stroke-dasharray="5,2" d="M131.31,-73.5682C127.136,-67.6231 118.761,-55.6933 110.903,-44.5004"/>
<polygon fill="black" stroke="black" points="113.683,-42.3696 105.073,-36.1962 107.954,-46.3917 113.683,-42.3696"/>
</g>
</g>
</svg>
