<?xml version="1.0" encoding="UTF-8" standalone="no"?>
<!DOCTYPE svg PUBLIC "-//W3C//DTD SVG 1.1//EN"
 "http://www.w3.org/Graphics/SVG/1.1/DTD/svg11.dtd">
<!-- Generated by graphviz version 2.38.0 (20140413.2041)
 -->
<!-- Title: trigext Pages: 1 -->
<svg width="436pt" height="449pt"
 viewBox="0.00 0.00 436.40 449.00" xmlns="http://www.w3.org/2000/svg" xmlns:xlink="http://www.w3.org/1999/xlink">
<g id="graph0" class="graph" transform="scale(1 1) rotate(0) translate(4 445)">
<title>trigext</title>
<polygon fill="white" stroke="none" points="-4,4 -4,-445 432.4,-445 432.4,4 -4,4"/>
<!-- PC -->
<g id="node1" class="node"><title>PC</title>
<path fill="none" stroke="black" d="M42,-441C42,-441 12,-441 12,-441 6,-441 0,-435 0,-429 0,-429 0,-417 0,-417 0,-411 6,-405 12,-405 12,-405 42,-405 42,-405 48,-405 54,-411 54,-417 54,-417 54,-429 54,-429 54,-435 48,-441 42,-441"/>
<text text-anchor="middle" x="27" y="-420.5" font-family="Times New Roman,serif" font-size="10.00">PC</text>
</g>
<!-- Trigger1 -->
<g id="node6" class="node"><title>Trigger1</title>
<path fill="none" stroke="black" d="M122.5,-358C122.5,-358 75.5,-358 75.5,-358 69.5,-358 63.5,-352 63.5,-346 63.5,-346 63.5,-334 63.5,-334 63.5,-328 69.5,-322 75.5,-322 75.5,-322 122.5,-322 122.5,-322 128.5,-322 134.5,-328 134.5,-334 134.5,-334 134.5,-346 134.5,-346 134.5,-352 128.5,-358 122.5,-358"/>
<text text-anchor="middle" x="99" y="-337.5" font-family="Times New Roman,serif" font-size="10.00">Trig_A_Scan</text>
</g>
<!-- PC&#45;&gt;Trigger1 -->
<g id="edge6" class="edge"><title>PC&#45;&gt;Trigger1</title>
<path fill="none" stroke="black" d="M42.2693,-404.822C52.3879,-393.439 65.821,-378.326 77.0757,-365.665"/>
<polygon fill="black" stroke="black" points="79.7249,-367.953 83.7527,-358.153 74.493,-363.302 79.7249,-367.953"/>
<text text-anchor="middle" x="77.5" y="-379" font-family="Times New Roman,serif" font-size="10.00">USB</text>
</g>
<!-- Grab -->
<g id="node2" class="node"><title>Grab</title>
<path fill="none" stroke="black" d="M274,-36C274,-36 218,-36 218,-36 212,-36 206,-30 206,-24 206,-24 206,-12 206,-12 206,-6 212,-0 218,-0 218,-0 274,-0 274,-0 280,-0 286,-6 286,-12 286,-12 286,-24 286,-24 286,-30 280,-36 274,-36"/>
<text text-anchor="middle" x="246" y="-15.5" font-family="Times New Roman,serif" font-size="10.00">Grabber/Camera</text>
</g>
<!-- Button1 -->
<g id="node3" class="node"><title>Button1</title>
<path fill="none" stroke="black" d="M114,-441C114,-441 84,-441 84,-441 78,-441 72,-435 72,-429 72,-429 72,-417 72,-417 72,-411 78,-405 84,-405 84,-405 114,-405 114,-405 120,-405 126,-411 126,-417 126,-417 126,-429 126,-429 126,-435 120,-441 114,-441"/>
<text text-anchor="middle" x="99" y="-420.5" font-family="Times New Roman,serif" font-size="10.00">Button1</text>
</g>
<!-- Button1&#45;&gt;Trigger1 -->
<g id="edge21" class="edge"><title>Button1&#45;&gt;Trigger1</title>
<path fill="none" stroke="black" stroke-dasharray="5,2" d="M99,-404.822C99,-394.19 99,-380.306 99,-368.204"/>
<polygon fill="black" stroke="black" points="102.5,-368.153 99,-358.153 95.5001,-368.153 102.5,-368.153"/>
</g>
<!-- Button2 -->
<g id="node4" class="node"><title>Button2</title>
<path fill="none" stroke="black" d="M231,-358C231,-358 201,-358 201,-358 195,-358 189,-352 189,-346 189,-346 189,-334 189,-334 189,-328 195,-322 201,-322 201,-322 231,-322 231,-322 237,-322 243,-328 243,-334 243,-334 243,-346 243,-346 243,-352 237,-358 231,-358"/>
<text text-anchor="middle" x="216" y="-337.5" font-family="Times New Roman,serif" font-size="10.00">Button2</text>
</g>
<!-- Trigger2 -->
<g id="node7" class="node"><title>Trigger2</title>
<path fill="none" stroke="black" d="M262.5,-275C262.5,-275 217.5,-275 217.5,-275 211.5,-275 205.5,-269 205.5,-263 205.5,-263 205.5,-251 205.5,-251 205.5,-245 211.5,-239 217.5,-239 217.5,-239 262.5,-239 262.5,-239 268.5,-239 274.5,-245 274.5,-251 274.5,-251 274.5,-263 274.5,-263 274.5,-269 268.5,-275 262.5,-275"/>
<text text-anchor="middle" x="240" y="-254.5" font-family="Times New Roman,serif" font-size="10.00">Trig_B_Scan</text>
</g>
<!-- Button2&#45;&gt;Trigger2 -->
<g id="edge22" class="edge"><title>Button2&#45;&gt;Trigger2</title>
<path fill="none" stroke="black" stroke-dasharray="5,2" d="M221.09,-321.822C224.272,-311.083 228.437,-297.025 232.048,-284.837"/>
<polygon fill="black" stroke="black" points="235.432,-285.736 234.918,-275.153 228.721,-283.747 235.432,-285.736"/>
</g>
<!-- Button3 -->
<g id="node5" class="node"><title>Button3</title>
<path fill="none" stroke="black" d="M388,-275C388,-275 358,-275 358,-275 352,-275 346,-269 346,-263 346,-263 346,-251 346,-251 346,-245 352,-239 358,-239 358,-239 388,-239 388,-239 394,-239 400,-245 400,-251 400,-251 400,-263 400,-263 400,-269 394,-275 388,-275"/>
<text text-anchor="middle" x="373" y="-254.5" font-family="Times New Roman,serif" font-size="10.00">Button3</text>
</g>
<!-- Trigger3 -->
<g id="node8" class="node"><title>Trigger3</title>
<path fill="none" stroke="black" d="M403.5,-192C403.5,-192 358.5,-192 358.5,-192 352.5,-192 346.5,-186 346.5,-180 346.5,-180 346.5,-168 346.5,-168 346.5,-162 352.5,-156 358.5,-156 358.5,-156 403.5,-156 403.5,-156 409.5,-156 415.5,-162 415.5,-168 415.5,-168 415.5,-180 415.5,-180 415.5,-186 409.5,-192 403.5,-192"/>
<text text-anchor="middle" x="381" y="-171.5" font-family="Times New Roman,serif" font-size="10.00">Trig_C_Scan</text>
</g>
<!-- Button3&#45;&gt;Trigger3 -->
<g id="edge23" class="edge"><title>Button3&#45;&gt;Trigger3</title>
<path fill="none" stroke="black" stroke-dasharray="5,2" d="M374.697,-238.822C375.747,-228.19 377.118,-214.306 378.313,-202.204"/>
<polygon fill="black" stroke="black" points="381.806,-202.449 379.306,-192.153 374.84,-201.761 381.806,-202.449"/>
</g>
<!-- Trigger1&#45;&gt;Trigger2 -->
<g id="edge1" class="edge"><title>Trigger1&#45;&gt;Trigger2</title>
<path fill="none" stroke="black" d="M143.862,-320.403C154.598,-315.465 165.877,-309.862 176,-304 187.679,-297.236 199.859,-288.856 210.42,-281.109"/>
<polygon fill="black" stroke="black" points="142.297,-317.269 134.611,-324.56 145.167,-323.654 142.297,-317.269"/>
<polygon fill="black" stroke="black" points="212.584,-283.862 218.503,-275.075 208.396,-278.253 212.584,-283.862"/>
</g>
<!-- TrigOut1 -->
<g id="node12" class="node"><title>TrigOut1</title>
<ellipse fill="black" stroke="black" cx="142" cy="-215.5" rx="5.4" ry="5.4"/>
</g>
<!-- Trigger1&#45;&gt;TrigOut1 -->
<g id="edge18" class="edge"><title>Trigger1&#45;&gt;TrigOut1</title>
<path fill="none" stroke="black" d="M111.028,-321.892C114.741,-316.304 118.715,-309.993 122,-304 128.789,-291.614 131.229,-288.612 135,-275 139.013,-260.514 140.725,-243.382 141.456,-231.416"/>
<polygon fill="black" stroke="black" points="144.965,-231.289 141.918,-221.142 137.972,-230.975 144.965,-231.289"/>
<text text-anchor="middle" x="139" y="-296" font-family="Times New Roman,serif" font-size="10.00">Out1</text>
</g>
<!-- Analog1 -->
<g id="node15" class="node"><title>Analog1</title>
<path fill="none" stroke="black" d="M42,-275C42,-275 12,-275 12,-275 6,-275 0,-269 0,-263 0,-263 0,-251 0,-251 0,-245 6,-239 12,-239 12,-239 42,-239 42,-239 48,-239 54,-245 54,-251 54,-251 54,-263 54,-263 54,-269 48,-275 42,-275"/>
<text text-anchor="middle" x="27" y="-254.5" font-family="Times New Roman,serif" font-size="10.00">Analog1</text>
</g>
<!-- Trigger1&#45;&gt;Analog1 -->
<g id="edge13" class="edge"><title>Trigger1&#45;&gt;Analog1</title>
<path fill="none" stroke="black" d="M83.7307,-321.822C73.6121,-310.439 60.179,-295.326 48.9243,-282.665"/>
<polygon fill="black" stroke="black" points="51.507,-280.302 42.2473,-275.153 46.2751,-284.953 51.507,-280.302"/>
</g>
<!-- Timer1 -->
<g id="node17" class="node"><title>Timer1</title>
<path fill="none" stroke="black" d="M114,-275C114,-275 84,-275 84,-275 78,-275 72,-269 72,-263 72,-263 72,-251 72,-251 72,-245 78,-239 84,-239 84,-239 114,-239 114,-239 120,-239 126,-245 126,-251 126,-251 126,-263 126,-263 126,-269 120,-275 114,-275"/>
<text text-anchor="middle" x="99" y="-254.5" font-family="Times New Roman,serif" font-size="10.00">Timer1</text>
</g>
<!-- Trigger1&#45;&gt;Timer1 -->
<g id="edge10" class="edge"><title>Trigger1&#45;&gt;Timer1</title>
<path fill="none" stroke="black" d="M93.364,-321.822C92.2145,-311.19 91.9546,-297.306 92.5843,-285.204"/>
<polygon fill="black" stroke="black" points="96.0799,-285.395 93.3667,-275.153 89.101,-284.851 96.0799,-285.395"/>
</g>
<!-- Trigger2&#45;&gt;Trigger3 -->
<g id="edge2" class="edge"><title>Trigger2&#45;&gt;Trigger3</title>
<path fill="none" stroke="black" d="M269.902,-238.822C291.027,-226.687 319.527,-210.314 342.372,-197.19"/>
<polygon fill="black" stroke="black" points="344.213,-200.169 351.141,-192.153 340.726,-194.1 344.213,-200.169"/>
</g>
<!-- TrigOut2 -->
<g id="node13" class="node"><title>TrigOut2</title>
<ellipse fill="black" stroke="black" cx="246" cy="-132.5" rx="5.4" ry="5.4"/>
</g>
<!-- Trigger2&#45;&gt;TrigOut2 -->
<g id="edge19" class="edge"><title>Trigger2&#45;&gt;TrigOut2</title>
<path fill="none" stroke="black" d="M240.834,-238.967C242.013,-214.893 244.148,-171.306 245.269,-148.432"/>
<polygon fill="black" stroke="black" points="248.769,-148.499 245.763,-138.34 241.778,-148.157 248.769,-148.499"/>
<text text-anchor="middle" x="253" y="-213" font-family="Times New Roman,serif" font-size="10.00">Out2</text>
</g>
<!-- Analog2 -->
<g id="node16" class="node"><title>Analog2</title>
<path fill="none" stroke="black" d="M316,-192C316,-192 286,-192 286,-192 280,-192 274,-186 274,-180 274,-180 274,-168 274,-168 274,-162 280,-156 286,-156 286,-156 316,-156 316,-156 322,-156 328,-162 328,-168 328,-168 328,-180 328,-180 328,-186 322,-192 316,-192"/>
<text text-anchor="middle" x="301" y="-171.5" font-family="Times New Roman,serif" font-size="10.00">Analog2</text>
</g>
<!-- Trigger2&#45;&gt;Analog2 -->
<g id="edge14" class="edge"><title>Trigger2&#45;&gt;Analog2</title>
<path fill="none" stroke="black" d="M255.361,-238.882C260.187,-233.294 265.442,-226.985 270,-221 274.813,-214.679 279.744,-207.655 284.216,-201.037"/>
<polygon fill="black" stroke="black" points="287.357,-202.635 289.977,-192.369 281.527,-198.76 287.357,-202.635"/>
</g>
<!-- Timer2 -->
<g id="node18" class="node"><title>Timer2</title>
<path fill="none" stroke="black" d="M206,-192C206,-192 176,-192 176,-192 170,-192 164,-186 164,-180 164,-180 164,-168 164,-168 164,-162 170,-156 176,-156 176,-156 206,-156 206,-156 212,-156 218,-162 218,-168 218,-168 218,-180 218,-180 218,-186 212,-192 206,-192"/>
<text text-anchor="middle" x="191" y="-171.5" font-family="Times New Roman,serif" font-size="10.00">Timer2</text>
</g>
<!-- Trigger2&#45;&gt;Timer2 -->
<g id="edge11" class="edge"><title>Trigger2&#45;&gt;Timer2</title>
<path fill="none" stroke="black" d="M223.972,-238.822C216.162,-227.868 207.207,-213.462 200.438,-201.108"/>
<polygon fill="black" stroke="black" points="203.486,-199.385 195.743,-192.153 197.287,-202.635 203.486,-199.385"/>
</g>
<!-- TrigOut3 -->
<g id="node14" class="node"><title>TrigOut3</title>
<ellipse fill="black" stroke="black" cx="305" cy="-91" rx="5.4" ry="5.4"/>
</g>
<!-- Trigger3&#45;&gt;TrigOut3 -->
<g id="edge20" class="edge"><title>Trigger3&#45;&gt;TrigOut3</title>
<path fill="none" stroke="black" d="M364.882,-155.822C349.87,-139.822 327.946,-116.456 315.21,-102.882"/>
<polygon fill="black" stroke="black" points="317.728,-100.45 308.333,-95.5522 312.623,-105.24 317.728,-100.45"/>
<text text-anchor="middle" x="358" y="-130" font-family="Times New Roman,serif" font-size="10.00">Out3</text>
</g>
<!-- Timer3 -->
<g id="node19" class="node"><title>Timer3</title>
<path fill="none" stroke="black" d="M396,-109C396,-109 366,-109 366,-109 360,-109 354,-103 354,-97 354,-97 354,-85 354,-85 354,-79 360,-73 366,-73 366,-73 396,-73 396,-73 402,-73 408,-79 408,-85 408,-85 408,-97 408,-97 408,-103 402,-109 396,-109"/>
<text text-anchor="middle" x="381" y="-88.5" font-family="Times New Roman,serif" font-size="10.00">Timer3</text>
</g>
<!-- Trigger3&#45;&gt;Timer3 -->
<g id="edge12" class="edge"><title>Trigger3&#45;&gt;Timer3</title>
<path fill="none" stroke="black" d="M375.364,-155.822C374.214,-145.19 373.955,-131.306 374.584,-119.204"/>
<polygon fill="black" stroke="black" points="378.08,-119.395 375.367,-109.153 371.101,-118.851 378.08,-119.395"/>
</g>
<!-- TrigIn1 -->
<g id="node9" class="node"><title>TrigIn1</title>
<ellipse fill="black" stroke="black" cx="149" cy="-423" rx="5.4" ry="5.4"/>
</g>
<!-- TrigIn1&#45;&gt;Trigger1 -->
<g id="edge15" class="edge"><title>TrigIn1&#45;&gt;Trigger1</title>
<path fill="none" stroke="black" stroke-dasharray="5,2" d="M146.588,-418.093C140.956,-408.968 126.54,-385.616 115.04,-366.985"/>
<polygon fill="black" stroke="black" points="117.911,-364.973 109.68,-358.302 111.955,-368.65 117.911,-364.973"/>
<text text-anchor="middle" x="133.5" y="-379" font-family="Times New Roman,serif" font-size="10.00">In1</text>
</g>
<!-- TrigIn2 -->
<g id="node10" class="node"><title>TrigIn2</title>
<ellipse fill="black" stroke="black" cx="266" cy="-340" rx="5.4" ry="5.4"/>
</g>
<!-- TrigIn2&#45;&gt;Trigger2 -->
<g id="edge16" class="edge"><title>TrigIn2&#45;&gt;Trigger2</title>
<path fill="none" stroke="black" stroke-dasharray="5,2" d="M264.602,-334.645C261.612,-325.329 254.39,-302.831 248.54,-284.605"/>
<polygon fill="black" stroke="black" points="251.855,-283.481 245.466,-275.03 245.19,-285.621 251.855,-283.481"/>
<text text-anchor="middle" x="261.5" y="-296" font-family="Times New Roman,serif" font-size="10.00">In2</text>
</g>
<!-- TrigIn3 -->
<g id="node11" class="node"><title>TrigIn3</title>
<ellipse fill="black" stroke="black" cx="423" cy="-257" rx="5.4" ry="5.4"/>
</g>
<!-- TrigIn3&#45;&gt;Trigger3 -->
<g id="edge17" class="edge"><title>TrigIn3&#45;&gt;Trigger3</title>
<path fill="none" stroke="black" stroke-dasharray="5,2" d="M420.742,-251.645C415.867,-242.243 404.029,-219.413 394.533,-201.1"/>
<polygon fill="black" stroke="black" points="397.541,-199.296 389.83,-192.03 391.326,-202.518 397.541,-199.296"/>
<text text-anchor="middle" x="410.5" y="-213" font-family="Times New Roman,serif" font-size="10.00">In3</text>
</g>
<!-- TrigOut1&#45;&gt;Grab -->
<g id="edge3" class="edge"><title>TrigOut1&#45;&gt;Grab</title>
<path fill="none" stroke="black" stroke-dasharray="5,2" d="M142.424,-210.075C143.499,-200.082 146.849,-175.145 155,-156 172.965,-113.803 204.209,-70.6264 224.997,-44.3101"/>
<polygon fill="black" stroke="black" points="227.828,-46.3737 231.349,-36.3808 222.365,-41.9972 227.828,-46.3737"/>
</g>
<!-- TrigOut2&#45;&gt;Grab -->
<g id="edge4" class="edge"><title>TrigOut2&#45;&gt;Grab</title>
<path fill="none" stroke="black" d="M246,-126.951C246,-113.596 246,-73.726 246,-46.3668"/>
<polygon fill="black" stroke="black" points="249.5,-46.2241 246,-36.2241 242.5,-46.2242 249.5,-46.2241"/>
</g>
<!-- TrigOut3&#45;&gt;Grab -->
<g id="edge5" class="edge"><title>TrigOut3&#45;&gt;Grab</title>
<path fill="none" stroke="black" stroke-dasharray="5,2" d="M301.828,-86.1827C295.265,-78.2847 279.719,-59.5772 266.694,-43.9035"/>
<polygon fill="black" stroke="black" points="269.257,-41.5113 260.174,-36.0571 263.874,-45.9851 269.257,-41.5113"/>
</g>
<!-- Timer1&#45;&gt;Trigger1 -->
<g id="edge7" class="edge"><title>Timer1&#45;&gt;Trigger1</title>
<path fill="none" stroke="black" d="M104.633,-275.153C105.784,-285.78 106.045,-299.663 105.417,-311.768"/>
<polygon fill="black" stroke="black" points="101.921,-311.581 104.636,-321.822 108.9,-312.123 101.921,-311.581"/>
</g>
<!-- Timer2&#45;&gt;Trigger2 -->
<g id="edge8" class="edge"><title>Timer2&#45;&gt;Trigger2</title>
<path fill="none" stroke="black" d="M207.01,-192.153C214.819,-203.102 223.775,-217.507 230.547,-229.864"/>
<polygon fill="black" stroke="black" points="227.501,-231.591 235.244,-238.822 233.7,-228.34 227.501,-231.591"/>
</g>
<!-- Timer3&#45;&gt;Trigger3 -->
<g id="edge9" class="edge"><title>Timer3&#45;&gt;Trigger3</title>
<path fill="none" stroke="black" d="M386.633,-109.153C387.784,-119.78 388.045,-133.663 387.417,-145.768"/>
<polygon fill="black" stroke="black" points="383.921,-145.581 386.636,-155.822 390.9,-146.123 383.921,-145.581"/>
</g>
</g>
</svg>
